<svg width="480" height="110" version="1.1" viewBox="0 0 127 29.104" xmlns="http://www.w3.org/2000/svg">
 <defs>
  <marker id="marker6121" style="overflow:visible" orient="auto">
   <path transform="matrix(-.4 0 0 -.4 -4 0)" d="m0 0 5-5-17.5 5 17.5 5z" style="fill-rule:evenodd;stroke-width:1pt;stroke:#000"/>
  </marker>
 </defs>
 <rect x="7.9375" y="7.9375" width="7.9375" height="7.9375" style="fill:#fc0;stroke-linecap:square;stroke-width:.39687;stroke:#000"/>
 <rect x="15.875" y="7.9375" width="7.9375" height="7.9375" style="fill:#fc0;stroke-linecap:square;stroke-width:.39687;stroke:#000"/>
 <rect x="23.812" y="7.9375" width="7.9375" height="7.9375" style="fill:#fc0;stroke-linecap:square;stroke-width:.39687;stroke:#000"/>
 <rect x="31.75" y="7.9375" width="7.9375" height="7.9375" style="fill:#fc0;stroke-linecap:square;stroke-width:.39687;stroke:#000"/>
 <rect x="39.688" y="7.9375" width="7.9375" height="7.9375" style="fill:#fc0;stroke-linecap:square;stroke-width:.39687;stroke:#000"/>
 <text x="6.3704338" y="13.655913" style="fill:#000000;font-family:unset;font-size:5.6444px;letter-spacing:0px;line-height:125%;stroke-width:.26458px;text-align:end;text-anchor:end;word-spacing:0px" xml:space="preserve"><tspan x="6.3704338" y="13.655913" style="font-family:unset;font-size:5.6444px;stroke-width:.26458px;text-align:end;text-anchor:end">a</tspan></text>
 <rect x="87.312" y="7.9375" width="7.9375" height="7.9375" style="fill:none;stroke-dasharray:0.396875, 1.190625;stroke-linecap:square;stroke-width:.39687;stroke:#000"/>
 <rect x="95.25" y="7.9375" width="7.9375" height="7.9375" style="fill:none;stroke-dasharray:0.396875, 1.190625;stroke-linecap:square;stroke-width:.39687;stroke:#000"/>
 <rect x="47.625" y="7.9375" width="7.9375" height="7.9375" style="fill:#b3b3b3;stroke-linecap:square;stroke-width:.39687;stroke:#000"/>
 <text x="43.23737" y="6.7319512" style="fill:#000000;font-family:sans-serif;font-size:3.5278px;letter-spacing:0px;line-height:125%;stroke-width:.26458px;word-spacing:0px" xml:space="preserve"><tspan x="43.23737" y="6.7319512" style="font-size:3.5278px;stroke-width:.26458px">i</tspan></text>
 <rect x="55.562" y="7.9375" width="7.9375" height="7.9375" style="fill:#b3b3b3;stroke-linecap:square;stroke-width:.39687;stroke:#000"/>
 <rect x="63.5" y="7.9375" width="7.9375" height="7.9375" style="fill:#fc0;stroke-linecap:square;stroke-width:.39687;stroke:#000"/>
 <rect x="71.438" y="7.9375" width="7.9375" height="7.9375" style="fill:#fc0;stroke-linecap:square;stroke-width:.39687;stroke:#000"/>
 <rect x="79.375" y="7.9375" width="7.9375" height="7.9375" style="fill:#fc0;stroke-linecap:square;stroke-width:.39687;stroke:#000"/>
 <text x="67.146034" y="6.0540109" style="fill:#000000;font-family:sans-serif;font-size:3.5278px;letter-spacing:0px;line-height:125%;stroke-width:.26458px;word-spacing:0px" xml:space="preserve"><tspan x="67.146034" y="6.0540109" style="font-size:3.5278px;stroke-width:.26458px">j</tspan></text>
 <path d="m66.146 17.198c-0.18485 3.7761-3.2587 6.5631-6.6146 6.6146-1.8266 0-3.4802-0.74036-4.6772-1.9374-1.197-1.197-1.2759-2.6928-1.9374-4.6772" style="fill:none;marker-end:url(#marker6121);stroke-linecap:square;stroke-width:.26458;stroke:#000"/>
 <path d="m74.083 17.198c-0.18485 3.7761-3.2587 6.5631-6.6146 6.6146-1.8266 0-3.4802-0.74036-4.6772-1.9374-1.197-1.197-1.2759-2.6928-1.9374-4.6772" style="fill:none;marker-end:url(#marker6121);stroke-linecap:square;stroke-width:.26458;stroke:#000"/>
 <path d="m82.021 17.198c-0.18485 3.7761-3.2587 6.5631-6.6146 6.6146-1.8266 0-3.4802-0.74036-4.6772-1.9374-1.197-1.197-1.2759-2.6928-1.9374-4.6772" style="fill:none;marker-end:url(#marker6121);stroke-linecap:square;stroke-width:.26458;stroke:#000"/>
</svg>
