<svg width="480" height="160" version="1.1" viewBox="0 0 127 42.333" xmlns="http://www.w3.org/2000/svg">
 <defs>
  <marker id="marker9167-5" style="overflow:visible" orient="auto">
   <path transform="matrix(-.4 0 0 -.4 -4 0)" d="m0 0 5-5-17.5 5 17.5 5z" style="fill-rule:evenodd;stroke-width:1pt;stroke:#000"/>
  </marker>
 </defs>
 <rect x="79.375" y="7.9375" width="7.9375" height="7.9375" style="fill:#fc0;stroke-linecap:square;stroke-width:.39687;stroke:#000"/>
 <rect x="87.312" y="7.9375" width="7.9375" height="7.9375" style="fill:#fc0;stroke-linecap:square;stroke-width:.39687;stroke:#000"/>
 <rect x="88.106" y="8.7312" width="6.0854" height="6.0854" ry=".52917" style="fill:#fff"/>
 <rect x="80.169" y="8.7312" width="6.0854" height="6.0854" ry=".52917" style="fill:#fff"/>
 <rect x="88.256" y="8.7312" width="6.2002" height="6.35" ry=".52917" style="fill:#fff"/>
 <rect x="80.169" y="8.7312" width="6.2002" height="6.35" ry=".55217" style="fill:#fff"/>
 <rect x="7.9375" y="29.104" width="7.9375" height="7.9375" style="fill:#fc0;stroke-linecap:square;stroke-width:.39687;stroke:#000"/>
 <rect x="15.875" y="29.104" width="7.9375" height="7.9375" style="fill:#fc0;stroke-linecap:square;stroke-width:.39687;stroke:#000"/>
 <rect x="23.812" y="29.104" width="7.9375" height="7.9375" style="fill:#fc0;stroke-linecap:square;stroke-width:.39687;stroke:#000"/>
 <rect x="31.75" y="29.104" width="7.9375" height="7.9375" style="fill:#fc0;stroke-linecap:square;stroke-width:.39687;stroke:#000"/>
 <rect x="39.688" y="29.104" width="7.9375" height="7.9375" style="fill:#fc0;stroke-linecap:square;stroke-width:.39687;stroke:#000"/>
 <text x="6.3704338" y="34.822582" style="fill:#000000;font-family:unset;font-size:5.6444px;letter-spacing:0px;line-height:125%;stroke-width:.26458px;text-align:end;text-anchor:end;word-spacing:0px" xml:space="preserve"><tspan x="6.3704338" y="34.822582" style="font-family:unset;font-size:5.6444px;stroke-width:.26458px;text-align:end;text-anchor:end">a</tspan></text>
 <rect x="87.312" y="29.104" width="7.9375" height="7.9375" style="fill:none;stroke-dasharray:0.396875, 1.190625;stroke-linecap:square;stroke-width:.39687;stroke:#000"/>
 <rect x="95.25" y="29.104" width="7.9375" height="7.9375" style="fill:none;stroke-dasharray:0.396875, 1.190625;stroke-linecap:square;stroke-width:.39687;stroke:#000"/>
 <text x="51.188637" y="27.86521" style="fill:#000000;font-family:sans-serif;font-size:3.5278px;letter-spacing:0px;line-height:125%;stroke-width:.26458px;word-spacing:0px" xml:space="preserve"><tspan x="51.188637" y="27.86521" style="font-size:3.5278px;stroke-width:.26458px">i</tspan></text>
 <rect x="63.5" y="29.104" width="7.9375" height="7.9375" style="fill:#fc0;stroke-linecap:square;stroke-width:.39687;stroke:#000"/>
 <rect x="71.438" y="29.104" width="7.9375" height="7.9375" style="fill:#fc0;stroke-linecap:square;stroke-width:.39687;stroke:#000"/>
 <rect x="55.562" y="29.104" width="7.9375" height="7.9375" style="fill:#fc0;stroke-linecap:square;stroke-width:.39687;stroke:#000"/>
 <rect x="47.625" y="29.104" width="7.9375" height="7.9375" style="fill:#fc0;stroke-linecap:square;stroke-width:.39687;stroke:#000"/>
 <text x="94.892136" y="5.3000307" style="fill:#000000;font-family:sans-serif;font-size:3.5278px;letter-spacing:0px;line-height:125%;stroke-width:.26458px;word-spacing:0px" xml:space="preserve"><tspan x="94.892136" y="5.3000307" style="font-size:3.5278px;stroke-width:.26458px">j</tspan></text>
 <rect x="79.375" y="29.104" width="7.9375" height="7.9375" style="fill:none;stroke-dasharray:0.396875, 1.190625;stroke-linecap:square;stroke-width:.39687;stroke:#000"/>
 <path d="m83.344 17.198 2e-6 10.583" style="fill:none;marker-end:url(#marker9167-5);stroke-width:.26458px;stroke:#000"/>
 <path d="m91.281 17.198 2e-6 10.583" style="fill:none;marker-end:url(#marker9167-5);stroke-width:.26458px;stroke:#000"/>
</svg>
