<svg width="480" height="140" version="1.1" viewBox="0 0 127 37.041" xmlns="http://www.w3.org/2000/svg">
 <defs>
  <marker id="marker12511" style="overflow:visible" orient="auto">
   <path transform="scale(-.6)" d="m8.7186 4.0337-10.926-4.0177 10.926-4.0177c-1.7455 2.3721-1.7354 5.6175 0 8.0354z" style="fill-rule:evenodd;stroke-linejoin:round;stroke-width:.625;stroke:#000"/>
  </marker>
  <marker id="marker23133" style="overflow:visible" orient="auto">
   <path transform="scale(-.6)" d="m8.7186 4.0337-10.926-4.0177 10.926-4.0177c-1.7455 2.3721-1.7354 5.6175 0 8.0354z" style="fill-rule:evenodd;stroke-linejoin:round;stroke-width:.625;stroke:#000"/>
  </marker>
  <marker id="marker23493" style="overflow:visible" orient="auto">
   <path transform="scale(-.6)" d="m8.7186 4.0337-10.926-4.0177 10.926-4.0177c-1.7455 2.3721-1.7354 5.6175 0 8.0354z" style="fill-rule:evenodd;stroke-linejoin:round;stroke-width:.625;stroke:#000"/>
  </marker>
  <marker id="marker23895" style="overflow:visible" orient="auto">
   <path transform="scale(-.6)" d="m8.7186 4.0337-10.926-4.0177 10.926-4.0177c-1.7455 2.3721-1.7354 5.6175 0 8.0354z" style="fill-rule:evenodd;stroke-linejoin:round;stroke-width:.625;stroke:#000"/>
  </marker>
  <marker id="marker24447" style="overflow:visible" orient="auto">
   <path transform="scale(-.6)" d="m8.7186 4.0337-10.926-4.0177 10.926-4.0177c-1.7455 2.3721-1.7354 5.6175 0 8.0354z" style="fill-rule:evenodd;stroke-linejoin:round;stroke-width:.625;stroke:#000"/>
  </marker>
  <marker id="marker22513" style="overflow:visible" orient="auto">
   <path transform="scale(-.6)" d="m8.7186 4.0337-10.926-4.0177 10.926-4.0177c-1.7455 2.3721-1.7354 5.6175 0 8.0354z" style="fill-rule:evenodd;stroke-linejoin:round;stroke-width:.625;stroke:#000"/>
  </marker>
  <marker id="marker12511-2" style="overflow:visible" orient="auto">
   <path transform="scale(-.6)" d="m8.7186 4.0337-10.926-4.0177 10.926-4.0177c-1.7455 2.3721-1.7354 5.6175 0 8.0354z" style="fill-rule:evenodd;stroke-linejoin:round;stroke-width:.625;stroke:#000"/>
  </marker>
 </defs>
 <text x="81.118622" y="17.665165" style="fill:#000000;font-family:sans-serif;font-size:4.2333px;letter-spacing:0px;line-height:125%;stroke-width:.26458px;word-spacing:0px" xml:space="preserve"><tspan x="81.118622" y="17.665165" style="font-size:4.2333px;stroke-width:.26458px">①</tspan></text>
 <rect x="52.917" y="23.812" width="10.583" height="10.583" style="fill:#fc0;stroke-linecap:square;stroke-width:.39687;stroke:#000"/>
 <rect x="42.333" y="23.812" width="10.583" height="10.583" style="fill:#fc0;stroke-linecap:square;stroke-width:.39687;stroke:#000"/>
 <rect x="31.75" y="23.812" width="10.583" height="10.583" style="fill:#fc0;stroke-linecap:square;stroke-width:.39687;stroke:#000"/>
 <rect x="21.167" y="23.812" width="10.583" height="10.583" style="fill:#fc0;stroke-linecap:square;stroke-width:.39687;stroke:#000"/>
 <rect x="10.583" y="23.812" width="10.583" height="10.583" style="fill:#fc0;stroke-linecap:square;stroke-width:.39687;stroke:#000"/>
 <rect x="63.5" y="23.812" width="10.583" height="10.583" style="fill:#fc0;stroke-linecap:square;stroke-width:.39687;stroke:#000"/>
 <rect x="84.667" y="23.812" width="10.583" height="10.583" style="fill:none;stroke-dasharray:0.39687498, 1.19062498;stroke-linecap:square;stroke-width:.39687;stroke:#000"/>
 <rect x="95.25" y="23.812" width="10.583" height="10.583" style="fill:none;stroke-dasharray:0.39687498, 1.19062498;stroke-linecap:square;stroke-width:.39687;stroke:#000"/>
 <rect x="105.83" y="23.812" width="10.583" height="10.583" style="fill:none;stroke-dasharray:0.39687498, 1.19062498;stroke-linecap:square;stroke-width:.39687;stroke:#000"/>
 <rect x="52.917" y="2.6461" width="10.583" height="10.583" style="fill:#2a7fff;stroke-linecap:square;stroke-width:.39687;stroke:#000"/>
 <rect x="63.5" y="2.6461" width="10.583" height="10.583" style="fill:#fc0;stroke-linecap:square;stroke-width:.39687;stroke:#000"/>
 <rect x="74.083" y="2.6461" width="10.583" height="10.583" style="fill:#fc0;stroke-linecap:square;stroke-width:.39687;stroke:#000"/>
 <rect x="84.667" y="2.6461" width="10.583" height="10.583" style="fill:#fc0;stroke-linecap:square;stroke-width:.39687;stroke:#000"/>
 <path d="m60.854 22.489 5.2918-7.9374" style="fill:none;marker-end:url(#marker12511-2);stroke-width:.39687;stroke:#000"/>
 <path d="m71.438 22.489 5.2918-7.9374" style="fill:none;marker-end:url(#marker22513);stroke-width:.39687;stroke:#000"/>
 <rect x="74.083" y="23.812" width="10.583" height="10.583" style="fill:#fc0;stroke-linecap:square;stroke-width:.39687;stroke:#000"/>
 <path d="m82.021 22.489 5.2918-7.9374" style="fill:none;marker-end:url(#marker24447);stroke-width:.39687;stroke:#000"/>
 <g transform="translate(-7.8125e-6 -18.521)">
  <path d="m58.208 33.073v7.4083" style="fill:none;marker-end:url(#marker12511);stroke-width:.39687;stroke:#000"/>
  <path d="m68.792 33.073v7.4083" style="fill:none;marker-end:url(#marker23133);stroke-width:.39687;stroke:#000"/>
  <path d="m79.375 33.073v7.4083" style="fill:none;marker-end:url(#marker23493);stroke-width:.39687;stroke:#000"/>
  <path d="m89.958 33.073v7.4083" style="fill:none;marker-end:url(#marker23895);stroke-width:.39687;stroke:#000"/>
 </g>
 <text x="9.5122061" y="31.905434" style="fill:#000000;font-family:unset;font-size:5.6444px;letter-spacing:0px;line-height:125%;stroke-width:.26458px;text-align:end;text-anchor:end;word-spacing:0px" xml:space="preserve"><tspan x="9.5122061" y="31.905434" style="font-family:unset;font-size:5.6444px;stroke-width:.26458px;text-align:end;text-anchor:end">a</tspan></text>
 <text x="91.021782" y="22.377748" style="fill:#000000;font-family:sans-serif;font-size:4.2333px;letter-spacing:0px;line-height:125%;stroke-width:.26458px;word-spacing:0px" xml:space="preserve"><tspan x="91.021782" y="22.377748" style="font-size:4.2333px;stroke-width:.26458px">②</tspan></text>
 <text x="56.964119" y="9.0951023" style="fill:#000000;font-family:sans-serif;font-size:4.2333px;letter-spacing:0px;line-height:125%;stroke-width:.26458px;word-spacing:0px" xml:space="preserve"><tspan x="56.964119" y="9.0951023" style="font-size:4.2333px;stroke-width:.26458px">x</tspan></text>
</svg>
