<svg width="480" height="140" version="1.1" viewBox="0 0 127 37.041" xmlns="http://www.w3.org/2000/svg">
 <defs>
  <marker id="marker24447" style="overflow:visible" orient="auto">
   <path transform="scale(-.6)" d="m8.7186 4.0337-10.926-4.0177 10.926-4.0177c-1.7455 2.3721-1.7354 5.6175 0 8.0354z" style="fill-rule:evenodd;stroke-linejoin:round;stroke-width:.625;stroke:#000"/>
  </marker>
 </defs>
 <text x="6.3704338" y="29.530916" style="fill:#000000;font-family:unset;font-size:5.6444px;letter-spacing:0px;line-height:125%;stroke-width:.26458px;text-align:end;text-anchor:end;word-spacing:0px" xml:space="preserve"><tspan x="6.3704338" y="29.530916" style="font-family:unset;font-size:5.6444px;stroke-width:.26458px;text-align:end;text-anchor:end">a</tspan></text>
 <rect x="52.917" y="23.813" width="10.583" height="10.583" style="fill:#fc0;stroke-linecap:square;stroke-width:.39687;stroke:#000"/>
 <rect x="42.333" y="23.813" width="10.583" height="10.583" style="fill:#fc0;stroke-linecap:square;stroke-width:.39687;stroke:#000"/>
 <rect x="31.75" y="23.813" width="10.583" height="10.583" style="fill:#fc0;stroke-linecap:square;stroke-width:.39687;stroke:#000"/>
 <rect x="21.167" y="23.813" width="10.583" height="10.583" style="fill:#fc0;stroke-linecap:square;stroke-width:.39687;stroke:#000"/>
 <rect x="10.583" y="23.813" width="10.583" height="10.583" style="fill:#fc0;stroke-linecap:square;stroke-width:.39687;stroke:#000"/>
 <rect x="63.5" y="23.813" width="10.583" height="10.583" style="fill:#fc0;stroke-linecap:square;stroke-width:.39687;stroke:#000"/>
 <rect x="74.083" y="23.813" width="10.583" height="10.583" style="fill:#fc0;stroke-linecap:square;stroke-width:.39687;stroke:#000"/>
 <rect x="52.917" y="2.6463" width="10.583" height="10.583" style="fill:#fc0;stroke-linecap:square;stroke-width:.39687;stroke:#000"/>
 <rect x="42.333" y="2.6463" width="10.583" height="10.583" style="fill:#fc0;stroke-linecap:square;stroke-width:.39687;stroke:#000"/>
 <rect x="31.75" y="2.6463" width="10.583" height="10.583" style="fill:#fc0;stroke-linecap:square;stroke-width:.39687;stroke:#000"/>
 <rect x="21.167" y="2.6463" width="10.583" height="10.583" style="fill:#fc0;stroke-linecap:square;stroke-width:.39687;stroke:#000"/>
 <rect x="63.5" y="2.6463" width="10.583" height="10.583" style="fill:#fc0;stroke-linecap:square;stroke-width:.39687;stroke:#000"/>
 <rect x="74.083" y="2.6463" width="10.583" height="10.583" style="fill:#fc0;stroke-linecap:square;stroke-width:.39687;stroke:#000"/>
 <rect x="84.667" y="2.6463" width="10.583" height="10.583" style="fill:#fc0;stroke-linecap:square;stroke-width:.39687;stroke:#000"/>
 <path d="m17.198 22.489 7.9375-7.408" style="fill:none;marker-end:url(#marker24447);stroke-width:.39687;stroke:#000"/>
 <rect x="10.583" y="2.646" width="10.583" height="10.583" style="fill:#2a7fff;stroke-linecap:square;stroke-width:.39687;stroke:#000"/>
 <text x="16.824888" y="9.4123068" style="fill:#000000;font-family:unset;font-size:4.2333px;letter-spacing:0px;line-height:125%;stroke-width:.26458px;text-align:end;text-anchor:end;word-spacing:0px" xml:space="preserve"><tspan x="16.824888" y="9.4123068" style="font-family:unset;font-size:4.2333px;stroke-width:.26458px;text-align:end;text-anchor:end">x</tspan></text>
 <path d="m27.781 22.489 7.9375-7.408" style="fill:none;marker-end:url(#marker24447);stroke-width:.39687;stroke:#000"/>
 <path d="m38.365 22.489 7.9375-7.408" style="fill:none;marker-end:url(#marker24447);stroke-width:.39687;stroke:#000"/>
 <path d="m48.948 22.489 7.9375-7.408" style="fill:none;marker-end:url(#marker24447);stroke-width:.39687;stroke:#000"/>
 <path d="m59.531 22.489 7.9375-7.408" style="fill:none;marker-end:url(#marker24447);stroke-width:.39687;stroke:#000"/>
 <path d="m70.115 22.489 7.9375-7.408" style="fill:none;marker-end:url(#marker24447);stroke-width:.39687;stroke:#000"/>
 <path d="m80.698 22.489 7.9375-7.408" style="fill:none;marker-end:url(#marker24447);stroke-width:.39687;stroke:#000"/>
</svg>
