<svg width="480" height="160" version="1.1" viewBox="0 0 127 42.333" xmlns="http://www.w3.org/2000/svg">
 <defs>
  <marker id="marker9167" style="overflow:visible" orient="auto">
   <path transform="matrix(-.4 0 0 -.4 -4 0)" d="m0 0 5-5-17.5 5 17.5 5z" style="fill-rule:evenodd;stroke-width:1pt;stroke:#000"/>
  </marker>
 </defs>
 <rect x="7.9375" y="29.104" width="7.9375" height="7.9375" style="fill:#fc0;stroke-linecap:square;stroke-width:.39687;stroke:#000"/>
 <rect x="15.875" y="29.104" width="7.9375" height="7.9375" style="fill:#fc0;stroke-linecap:square;stroke-width:.39687;stroke:#000"/>
 <rect x="23.812" y="29.104" width="7.9375" height="7.9375" style="fill:#fc0;stroke-linecap:square;stroke-width:.39687;stroke:#000"/>
 <rect x="31.75" y="29.104" width="7.9375" height="7.9375" style="fill:#fc0;stroke-linecap:square;stroke-width:.39687;stroke:#000"/>
 <rect x="39.688" y="29.104" width="7.9375" height="7.9375" style="fill:#fc0;stroke-linecap:square;stroke-width:.39687;stroke:#000"/>
 <text x="6.3704338" y="34.822582" style="fill:#000000;font-family:unset;font-size:5.6444px;letter-spacing:0px;line-height:125%;stroke-width:.26458px;text-align:end;text-anchor:end;word-spacing:0px" xml:space="preserve"><tspan x="6.3704338" y="34.822582" style="font-family:unset;font-size:5.6444px;stroke-width:.26458px;text-align:end;text-anchor:end">a</tspan></text>
 <rect x="63.5" y="29.104" width="7.9375" height="7.9375" style="fill:#fc0;stroke-linecap:square;stroke-width:.39687;stroke:#000"/>
 <rect x="71.438" y="29.104" width="7.9375" height="7.9375" style="fill:#fc0;stroke-linecap:square;stroke-width:.39687;stroke:#000"/>
 <rect x="55.562" y="29.104" width="7.9375" height="7.9375" style="fill:#fc0;stroke-linecap:square;stroke-width:.39687;stroke:#000"/>
 <rect x="47.625" y="29.104" width="7.9375" height="7.9375" style="fill:#fc0;stroke-linecap:square;stroke-width:.39687;stroke:#000"/>
 <rect x="87.313" y="7.9375" width="7.9375" height="7.9375" style="fill:#fc0;stroke-linecap:square;stroke-width:.39687;stroke:#000"/>
 <rect x="71.438" y="7.9375" width="7.9375" height="7.9375" style="fill:#fc0;stroke-linecap:square;stroke-width:.39687;stroke:#000"/>
 <rect x="79.375" y="7.9375" width="7.9375" height="7.9375" style="fill:#fc0;stroke-linecap:square;stroke-width:.39687;stroke:#000"/>
 <rect x="71.438" y="7.9375" width="7.9375" height="7.9375" style="fill:#fc0;stroke-linecap:square;stroke-width:.39687;stroke:#000"/>
 <path d="m13.229 27.781 7.9378-10.584" style="fill:none;marker-end:url(#marker9167);stroke-width:.26458px;stroke:#000"/>
 <g transform="translate(-1.3229 7.9375)" style="stroke-width:.26458;stroke:#fff">
  <path d="m60.854 9.2604 2e-6 10.583" style="fill:none;stroke-width:.79375;stroke:#fff"/>
  <path d="m68.792 9.2604 2e-6 10.583" style="fill:none;stroke-width:.79375;stroke:#fff"/>
  <path d="m75.406 9.2604 2e-6 10.583" style="fill:none;stroke-width:.79375;stroke:#fff"/>
  <path d="m83.344 9.2604 2e-6 10.583" style="fill:none;stroke-width:.79375;stroke:#fff"/>
  <path d="m91.281 9.2604 2e-6 10.583" style="fill:none;stroke-width:.79375;stroke:#fff"/>
 </g>
 <rect x="7.9375" y="7.9373" width="7.9375" height="7.9375" style="fill:#2a7fff;stroke-linecap:square;stroke-width:.39687;stroke:#000"/>
 <path d="m21.167 27.781 7.9378-10.584" style="fill:none;marker-end:url(#marker9167);stroke-width:.26458px;stroke:#000"/>
 <path d="m29.104 27.781 7.9378-10.584" style="fill:none;marker-end:url(#marker9167);stroke-width:.26458px;stroke:#000"/>
 <path d="m37.042 27.781 7.9378-10.584" style="fill:none;marker-end:url(#marker9167);stroke-width:.26458px;stroke:#000"/>
 <path d="m44.979 27.781 7.9378-10.584" style="fill:none;marker-end:url(#marker9167);stroke-width:.26458px;stroke:#000"/>
 <path d="m52.917 27.781 7.9378-10.584" style="fill:none;marker-end:url(#marker9167);stroke-width:.26458px;stroke:#000"/>
 <path d="m60.854 27.781 7.9378-10.584" style="fill:none;marker-end:url(#marker9167);stroke-width:.26458px;stroke:#000"/>
 <path d="m68.792 27.781 7.9378-10.584" style="fill:none;marker-end:url(#marker9167);stroke-width:.26458px;stroke:#000"/>
 <path d="m76.729 27.781 7.9378-10.584" style="fill:none;marker-end:url(#marker9167);stroke-width:.26458px;stroke:#000"/>
 <rect x="63.5" y="7.9373" width="7.9375" height="7.9375" style="fill:#fc0;stroke-linecap:square;stroke-width:.39687;stroke:#000"/>
 <rect x="47.625" y="7.9373" width="7.9375" height="7.9375" style="fill:#fc0;stroke-linecap:square;stroke-width:.39687;stroke:#000"/>
 <rect x="55.562" y="7.9373" width="7.9375" height="7.9375" style="fill:#fc0;stroke-linecap:square;stroke-width:.39687;stroke:#000"/>
 <rect x="47.625" y="7.9373" width="7.9375" height="7.9375" style="fill:#fc0;stroke-linecap:square;stroke-width:.39687;stroke:#000"/>
 <rect x="39.688" y="7.9373" width="7.9375" height="7.9375" style="fill:#fc0;stroke-linecap:square;stroke-width:.39687;stroke:#000"/>
 <rect x="23.813" y="7.9373" width="7.9375" height="7.9375" style="fill:#fc0;stroke-linecap:square;stroke-width:.39687;stroke:#000"/>
 <rect x="31.75" y="7.9373" width="7.9375" height="7.9375" style="fill:#fc0;stroke-linecap:square;stroke-width:.39687;stroke:#000"/>
 <rect x="23.813" y="7.9373" width="7.9375" height="7.9375" style="fill:#fc0;stroke-linecap:square;stroke-width:.39687;stroke:#000"/>
 <rect x="15.875" y="7.9373" width="7.9375" height="7.9375" style="fill:#fc0;stroke-linecap:square;stroke-width:.39687;stroke:#000"/>
 <text x="10.869269" y="12.870683" style="fill:#000000;font-family:sans-serif;font-size:3.5278px;letter-spacing:0px;line-height:125%;stroke-width:.26458px;word-spacing:0px" xml:space="preserve"><tspan x="10.869269" y="12.870683" style="font-size:3.5278px;stroke-width:.26458px">x</tspan></text>
</svg>
