<svg width="480" height="110" version="1.1" viewBox="0 0 127 29.104" xmlns="http://www.w3.org/2000/svg">
 <defs>
  <marker id="marker17079" style="overflow:visible" orient="auto">
   <path transform="scale(-.6)" d="m8.7186 4.0337-10.926-4.0177 10.926-4.0177c-1.7455 2.3721-1.7354 5.6175-6e-7 8.0354z" style="fill-rule:evenodd;stroke-linejoin:round;stroke-width:.625;stroke:#000"/>
  </marker>
  <marker id="marker16701" style="overflow:visible" orient="auto">
   <path transform="scale(-.6)" d="m8.7186 4.0337-10.926-4.0177 10.926-4.0177c-1.7455 2.3721-1.7354 5.6175-6e-7 8.0354z" style="fill-rule:evenodd;stroke-linejoin:round;stroke-width:.625;stroke:#000"/>
  </marker>
  <marker id="marker16275" style="overflow:visible" orient="auto">
   <path transform="scale(-.6)" d="m8.7186 4.0337-10.926-4.0177 10.926-4.0177c-1.7455 2.3721-1.7354 5.6175-6e-7 8.0354z" style="fill-rule:evenodd;stroke-linejoin:round;stroke-width:.625;stroke:#000"/>
  </marker>
  <marker id="marker12804" style="overflow:visible" orient="auto">
   <path transform="scale(-.6)" d="m8.7186 4.0337-10.926-4.0177 10.926-4.0177c-1.7455 2.3721-1.7354 5.6175-6e-7 8.0354z" style="fill-rule:evenodd;stroke-linejoin:round;stroke-width:.625;stroke:#000"/>
  </marker>
 </defs>
 <text x="8.9885855" y="16.067112" style="fill:#000000;font-family:unset;font-size:5.6444px;letter-spacing:0px;line-height:125%;stroke-width:.26458px;text-align:end;text-anchor:end;word-spacing:0px" xml:space="preserve"><tspan x="8.9885855" y="16.067112" style="font-family:unset;font-size:5.6444px;stroke-width:.26458px;text-align:end;text-anchor:end">a</tspan></text>
 <rect x="10.583" y="9.2603" width="10.583" height="10.583" style="fill:#fc0;stroke-linecap:square;stroke-width:.39687;stroke:#000"/>
 <rect x="21.167" y="9.2603" width="10.583" height="10.583" style="fill:#fc0;stroke-linecap:square;stroke-width:.39687;stroke:#000"/>
 <rect x="31.75" y="9.2603" width="10.583" height="10.583" style="fill:#fc0;stroke-linecap:square;stroke-width:.39687;stroke:#000"/>
 <rect x="42.333" y="9.2603" width="10.583" height="10.583" style="fill:#fc0;stroke-linecap:square;stroke-width:.39687;stroke:#000"/>
 <rect x="52.917" y="9.2603" width="10.583" height="10.583" style="fill:#fc0;stroke-linecap:square;stroke-width:.39687;stroke:#000"/>
 <rect x="63.5" y="9.2603" width="10.583" height="10.583" style="fill:#b3b3b3;stroke-linecap:square;stroke-width:.39687;stroke:#000"/>
 <rect x="74.083" y="9.2603" width="10.583" height="10.583" style="fill:#fc0;stroke-linecap:square;stroke-width:.39687;stroke:#000"/>
 <rect x="84.667" y="9.2603" width="10.583" height="10.583" style="fill:#fc0;stroke-linecap:square;stroke-width:.39687;stroke:#000"/>
 <rect x="95.25" y="9.2603" width="10.583" height="10.583" style="fill:#fc0;stroke-linecap:square;stroke-width:.39687;stroke:#000"/>
 <rect x="105.83" y="9.2603" width="10.583" height="10.583" style="fill:#fc0;stroke-linecap:square;stroke-width:.39687;stroke:#000"/>
 <path d="m76.729 21.045c-0.07394 1.7321-1.3035 3.0105-2.6458 3.0342-0.73064 0-1.3921-0.33961-1.8709-0.8887-0.4788-0.54907-0.51036-1.2352-0.77496-2.1455" style="fill:none;marker-end:url(#marker12804);stroke-linecap:square;stroke-width:.39687;stroke:#000"/>
 <text x="68.036858" y="6.7887053" style="fill:#000000;font-family:unset;font-size:4.2333px;letter-spacing:0px;line-height:125%;stroke-width:.26458px;text-align:end;text-anchor:end;word-spacing:0px" xml:space="preserve"><tspan x="68.036858" y="6.7887053" style="font-family:unset;font-size:4.2333px;stroke-width:.26458px;text-align:end;text-anchor:end">i</tspan></text>
 <path d="m87.312 21.045c-0.07394 1.7321-1.3035 3.0105-2.6458 3.0342-0.73064 0-1.3921-0.33961-1.8709-0.8887-0.4788-0.54907-0.51036-1.2352-0.77496-2.1455" style="fill:none;marker-end:url(#marker16275);stroke-linecap:square;stroke-width:.39687;stroke:#000"/>
 <path d="m97.896 21.167c-0.07394 1.7321-1.3035 3.0105-2.6458 3.0342-0.73064 0-1.3921-0.33961-1.8709-0.8887-0.4788-0.54907-0.51036-1.2352-0.77496-2.1455" style="fill:none;marker-end:url(#marker16701);stroke-linecap:square;stroke-width:.39687;stroke:#000"/>
 <path d="m108.48 21.167c-0.0739 1.7321-1.3035 3.0105-2.6458 3.0342-0.73064 0-1.3921-0.33961-1.8709-0.8887-0.4788-0.54907-0.51036-1.2352-0.77496-2.1455" style="fill:none;marker-end:url(#marker17079);stroke-linecap:square;stroke-width:.39687;stroke:#000"/>
</svg>
